<?xml version="1.0" encoding="UTF-8"?>
<!-- Generator: Adobe Illustrator 25.0.0, SVG Export Plug-In . SVG Version: 6.00 Build 0)  -->
<svg version="1.0" xmlns="http://www.w3.org/2000/svg" xmlns:xlink="http://www.w3.org/1999/xlink" x="0px" y="0px" viewBox="0 0 133.2283478 54.5669289" style="enable-background:new 0 0 133.2283478 54.5669289;" xml:space="preserve">
<style type="text/css">
	.st0{fill:#D70F3C;}
	.st1{fill:#002D58;}
	.st2{display:none;}
	.st3{display:inline;opacity:0;fill:#CCD5DE;}
</style>
<g id="Klammer">
	<g>
		<g>
			<polygon class="st0" points="7.26758,17.313303 4.26758,17.313303 4.26758,4.2517796 17.3291035,4.2517796 17.3291035,7.2517796      7.26758,7.2517796    "/>
		</g>
	</g>
</g>
<g id="DE">
	<g>
		<path class="st1" d="M21.0626526,28.3802223v2.6435547h-6.4423819v3.4433594h5.7763662v2.6220703h-5.7763662v3.9980469h6.4423819    v2.6220703h-9.5527334V28.3802223H21.0626526z"/>
		<path class="st1" d="M31.6407776,32.3567848c-0.6660156-1.0449219-1.4658203-1.5556641-3.0214844-1.5556641    c-1.3994141,0-2.1542969,0.6445312-2.1542969,1.6884766c0,1.2001953,0.9765625,1.7333984,3.0214844,2.2441406    c3.1992188,0.7998047,4.6425781,2,4.6425781,4.7099609c0,2.5107422-1.6884766,4.4658203-5.2871094,4.4658203    c-2.6884766,0-4.5546875-0.7333984-5.9101562-2.5107422l2.3769531-1.6435547    c0.8222656,1.0214844,1.7558594,1.5322266,3.3330078,1.5322266c1.7773438,0,2.3769531-0.7773438,2.3769531-1.7099609    c0-1.0664062-0.6435547-1.6669922-3.1318359-2.3105469c-3.0214844-0.8007812-4.5332031-2.2441406-4.5332031-4.7773438    c0-2.421875,1.5996094-4.3095703,5.2441406-4.3095703c2.4433594,0,4.2871094,0.8212891,5.3759766,2.5107422L31.6407776,32.3567848    z"/>
		<path class="st1" d="M44.8634338,32.3567848c-0.6660156-1.0449219-1.4658203-1.5556641-3.0214844-1.5556641    c-1.3994141,0-2.1542969,0.6445312-2.1542969,1.6884766c0,1.2001953,0.9765625,1.7333984,3.0214844,2.2441406    c3.1992188,0.7998047,4.6425781,2,4.6425781,4.7099609c0,2.5107422-1.6884766,4.4658203-5.2871094,4.4658203    c-2.6884766,0-4.5546875-0.7333984-5.9101562-2.5107422l2.3769531-1.6435547    c0.8222656,1.0214844,1.7558594,1.5322266,3.3330078,1.5322266c1.7773438,0,2.3769531-0.7773438,2.3769531-1.7099609    c0-1.0664062-0.6435547-1.6669922-3.1318359-2.3105469c-3.0214844-0.8007812-4.5332031-2.2441406-4.5332031-4.7773438    c0-2.421875,1.5996094-4.3095703,5.2441406-4.3095703c2.4433594,0,4.2871094,0.8212891,5.3759766,2.5107422L44.8634338,32.3567848    z"/>
		<path class="st1" d="M53.2208557,41.0872536h6.4433594v2.6220703h-9.5537109V28.3802223h3.1103516V41.0872536z"/>
		<path class="st1" d="M65.0880432,43.7093239h-3.1113281V28.3802223h3.1113281V43.7093239z"/>
		<path class="st1" d="M80.3077698,28.3802223v15.3291016H77.709137l-5.9765625-9.4863281v9.4863281h-2.9550781V28.3802223    h2.5771484l5.9990234,9.6191406v-9.6191406H80.3077698z"/>
		<path class="st1" d="M94.8419495,35.7337379v1.3994141c0,4.6875-2.1777344,6.7763672-5.6435547,6.7763672    c-3.4433594,0-5.8652344-2.0888672-5.8652344-6.7763672v-1.9550781c0-4.9541016,2.421875-6.9980469,5.8652344-6.9980469    c3.2216797,0,5.1542969,1.8212891,5.6210938,4.9541016h-2.9775391c-0.265625-1.3994141-1.0878906-2.3330078-2.6435547-2.3330078    c-1.7998047,0-2.7548828,1.2216797-2.7548828,4.1552734v2.1767578c0,2.9326172,0.9550781,4.1542969,2.7548828,4.1542969    c1.7548828,0,2.4658203-1.0888672,2.6435547-2.9326172h-2.5761719v-2.6210938H94.8419495z"/>
		<path class="st1" d="M107.3985901,28.3802223v2.6435547h-6.4433594v3.4433594h5.7763672v2.6220703h-5.7763672v3.9980469h6.4433594    v2.6220703h-9.5537109V28.3802223H107.3985901z"/>
		<path class="st1" d="M121.530426,28.3802223v15.3291016h-2.5986328l-5.9765625-9.4863281v9.4863281h-2.9550781V28.3802223    h2.5771484l5.9990234,9.6191406v-9.6191406H121.530426z"/>
	</g>
	<g>
		<polygon class="st1" points="18.8373108,17.1084518 12.5804758,17.1084518 12.5804758,11.5283737 11.5189524,11.5283737     11.5189524,24.1523972 12.5804758,24.1523972 12.5804758,18.0967331 18.8373108,18.0967331 18.8373108,24.1523972     19.8978577,24.1523972 19.8978577,11.5283737 18.8373108,11.5283737   "/>
		<path class="st1" d="M27.1858711,11.4189987c-2.7070312,0-4.4824219,1.7011719-4.4824219,5.671875v1.5    c0,3.9882812,1.7753906,5.6708984,4.4824219,5.6708984c2.7080078,0,4.4824219-1.6826172,4.4824219-5.6708984v-1.5    C31.668293,13.1201706,29.8938789,11.4189987,27.1858711,11.4189987z M30.6077461,18.5908737    c0,3.4208984-1.3544922,4.6835938-3.421875,4.6835938s-3.4208984-1.2626953-3.4208984-4.6835938v-1.5    c0-3.4033203,1.3535156-4.6835938,3.4208984-4.6835938s3.421875,1.2802734,3.421875,4.6835938V18.5908737z"/>
		<path class="st1" d="M38.9563065,12.40728c1.7197266,0,2.9824219,0.8046875,3.4033203,2.9453125h1.0429688    c-0.4023438-2.7626953-2.1953125-3.9335938-4.4462891-3.9335938c-2.7441406,0-4.4824219,1.5917969-4.4824219,5.671875v1.5    c0,4.0800781,1.7382812,5.6708984,4.4824219,5.6708984c2.1591797,0,4.0253906-1.1337891,4.4277344-3.9697266h-1.0244141    c-0.4023438,2.0126953-1.5732422,2.9824219-3.4033203,2.9824219c-2.140625,0-3.4208984-1.2255859-3.4208984-4.6835938v-1.5    C35.535408,13.650444,36.7981033,12.40728,38.9563065,12.40728z"/>
		<polygon class="st1" points="53.5265465,17.1084518 47.2697105,17.1084518 47.2697105,11.5283737 46.2081871,11.5283737     46.2081871,24.1523972 47.2697105,24.1523972 47.2697105,18.0967331 53.5265465,18.0967331 53.5265465,24.1523972     54.5870934,24.1523972 54.5870934,11.5283737 53.5265465,11.5283737   "/>
		<path class="st1" d="M62.0214119,17.3467331c-1.8300781-0.4023438-3.2753906-0.8603516-3.2753906-2.6708984    c0-1.5556641,1.1533203-2.2685547,2.890625-2.2685547c1.7382812,0,2.6162071,0.7128906,3.2753868,1.6826172l0.8417969-0.6035156    c-0.8789062-1.390625-2.1230431-2.0673828-4.0800743-2.0673828c-2.8359375,0-3.9882812,1.4814453-3.9882812,3.2568359    c0,2.25,1.609375,3.1650391,3.9697266,3.6220703c2.3789024,0.4570312,3.2568321,1.1894531,3.2568321,2.7080078    c0,1.2255859-0.8417969,2.2685547-3.0917931,2.2685547c-1.8847656,0-2.7626953-0.6953125-3.5498047-1.6835938l-0.859375,0.6035156    c0.9326172,1.3720703,2.3964844,2.0673828,4.4091797,2.0673828c3.0185509,0,4.1523399-1.6826172,4.1523399-3.2929688    C65.97258,18.5908737,64.3993378,17.8584518,62.0214119,17.3467331z"/>
		<path class="st1" d="M72.7635956,12.40728c1.7197266,0,2.9824219,0.8046875,3.4033203,2.9453125h1.0429688    c-0.4023438-2.7626953-2.1953125-3.9335938-4.4462891-3.9335938c-2.7441406,0-4.4824219,1.5917969-4.4824219,5.671875v1.5    c0,4.0800781,1.7382812,5.6708984,4.4824219,5.6708984c2.1591797,0,4.0253906-1.1337891,4.4277344-3.9697266h-1.0244141    c-0.4023438,2.0126953-1.5732422,2.9824219-3.4033203,2.9824219c-2.140625,0-3.4208984-1.2255859-3.4208984-4.6835938v-1.5    C69.3426971,13.650444,70.6053925,12.40728,72.7635956,12.40728z"/>
		<polygon class="st1" points="87.2206268,17.1084518 80.9637909,17.1084518 80.9637909,11.5283737 79.9022675,11.5283737     79.9022675,24.1523972 80.9637909,24.1523972 80.9637909,18.0967331 87.2206268,18.0967331 87.2206268,24.1523972     88.2811737,24.1523972 88.2811737,11.5283737 87.2206268,11.5283737   "/>
		<path class="st1" d="M99.84758,18.9932175c0,2.9267578-1.2070312,4.28125-3.4208984,4.28125    s-3.4208984-1.3544922-3.4208984-4.28125v-7.4648438h-1.0615234v7.4648438c0,3.7138672,1.7382812,5.2685547,4.4824219,5.2685547    s4.4824219-1.5546875,4.4824219-5.2685547v-7.4648438H99.84758V18.9932175z"/>
		<polygon class="st1" points="105.4203186,11.5283737 104.3587952,11.5283737 104.3587952,24.1523972 111.7865295,24.1523972     111.7865295,23.1641159 105.4203186,23.1641159   "/>
		<polygon class="st1" points="121.513588,12.516655 121.513588,11.5283737 114.0858536,11.5283737 114.0858536,24.1523972     121.513588,24.1523972 121.513588,23.1641159 115.147377,23.1641159 115.147377,18.1152878 120.9647598,18.1152878     120.9647598,17.1270065 115.147377,17.1270065 115.147377,12.516655   "/>
	</g>
</g>
<g id="Vermassung" class="st2">
	<path class="st3" d="M11.4340153,43.7142868v2.6435547H4.991632v3.4433594h5.7763677v2.6220703H4.991632v3.9980469h6.4423833   v2.6220703H1.8812804V43.7142868H11.4340153z"/>
	<rect x="-0.0001587" y="7.2340713" class="st3" width="4.2601218" height="4.2601218"/>
	<rect x="5.98558" y="0.0047675" class="st3" width="4.2601218" height="4.2601218"/>
	<rect x="7.2741766" y="7.2756386" class="st3" width="4.2601218" height="4.2601218"/>
	<rect x="7.2276063" y="24.1586533" class="st3" width="4.2601218" height="4.2601218"/>
</g>
</svg>